<?xml version="1.0" encoding="UTF-8" standalone="no"?>
<!-- Created with Inkscape (http://www.inkscape.org/) -->

<svg
   width="1618mm"
   height="1249mm"
   viewBox="0 0 1618 1249"
   version="1.1"
   id="svg5"
   xml:space="preserve"
   inkscape:version="1.2.1 (9c6d41e410, 2022-07-14)"
   sodipodi:docname="ch.svg"
   xmlns:inkscape="http://www.inkscape.org/namespaces/inkscape"
   xmlns:sodipodi="http://sodipodi.sourceforge.net/DTD/sodipodi-0.dtd"
   xmlns="http://www.w3.org/2000/svg"
   xmlns:svg="http://www.w3.org/2000/svg"><sodipodi:namedview
     id="namedview7"
     pagecolor="#ffffff"
     bordercolor="#000000"
     borderopacity="0.25"
     inkscape:showpageshadow="2"
     inkscape:pageopacity="0.0"
     inkscape:pagecheckerboard="0"
     inkscape:deskcolor="#d1d1d1"
     inkscape:document-units="mm"
     showgrid="false"
     inkscape:zoom="0.14928528"
     inkscape:cx="1872.2543"
     inkscape:cy="2140.1976"
     inkscape:window-width="1920"
     inkscape:window-height="1015"
     inkscape:window-x="0"
     inkscape:window-y="0"
     inkscape:window-maximized="1"
     inkscape:current-layer="layer1"
     showguides="false" /><defs
     id="defs2" /><g
     inkscape:label="Layer 1"
     inkscape:groupmode="layer"
     id="layer1"
     transform="matrix(0.99950126,0,0,0.99999513,37.608185,-63.264873)"><path
       style="fill:#ffffff;fill-opacity:1;stroke:#000000;stroke-width:2.92375;stroke-dasharray:none;stroke-opacity:1"
       d="m 1074.5105,1104.4362 146.7532,-192.72572 225.2875,129.93352 9.2144,-194.79353 110.2795,35.74205 -6.4526,-214.06269 -318.4779,-30.63803 -234.5273,112.94041 -49.02676,131.47885 z"
       id="path3552"
       inkscape:label="gr" /><path
       style="fill:#ffffff;fill-opacity:1;stroke:#000000;stroke-width:2.92375;stroke-dasharray:none;stroke-opacity:1"
       d="m 880.64354,888.01121 -1.07717,-176.15608 55.45915,-33.07367 108.09798,31.35094 -6.2321,82.79935 -79.77429,104.93251 z"
       id="path1921"
       inkscape:label="ur" /><path
       style="fill:#ffffff;fill-opacity:1;stroke:#000000;stroke-width:2.92375;stroke-dasharray:none;stroke-opacity:1"
       d="m 338.68419,614.42053 39.63292,-75.42752 176.89391,-43.89442 153.75122,25.97457 28.1012,184.51789 6.19715,44.94709 151.09178,29.97619 31.46678,120.46098 -116.01962,21.95832 -350.12149,35.91656 -5.92833,-154.4675 z"
       id="path1932"
       inkscape:label="be" /><path
       style="fill:#ffffff;fill-opacity:1;stroke:#000000;stroke-width:2.92375;stroke-dasharray:none;stroke-opacity:1"
       d="m 734.28649,770.79508 -70.17187,-64.33953 34.30579,-46.20542 -21.40239,-122.41247 51.75886,-20.56702 114.63985,8.30621 60.92921,119.74003 3.08005,21.71665 z"
       id="path1928"
       inkscape:label="lu" /><path
       style="fill:#ffffff;fill-opacity:1;stroke:#000000;stroke-width:2.92375;stroke-dasharray:none;stroke-opacity:1"
       d="m 868.66878,605.08048 113.03142,-51.94428 115.1431,-3.01602 -4.0591,110.39466 -59.7654,71.64944 -93.02067,-21.311 z"
       id="path1925"
       inkscape:label="sz" /><path
       style="fill:#ffffff;fill-opacity:1;stroke:#000000;stroke-width:2.86889;stroke-dasharray:none;stroke-opacity:1"
       d="m 340.41409,573.82731 90.34644,90.13107 -152.44541,128.82168 -81.854,-40.81653 z"
       id="path1880"
       inkscape:label="ne" /><path
       style="fill:#ffffff;fill-opacity:1;stroke:#000000;stroke-width:2.92375;stroke-dasharray:none;stroke-opacity:1"
       d="M 321.95925,954.66899 430.83652,1216.6856 678.58043,1192.2037 884.90467,896.26859 Z"
       id="path233"
       inkscape:label="vs" /><path
       style="fill:#ffffff;fill-opacity:1;stroke:#000000;stroke-width:2.92375;stroke-dasharray:none;stroke-opacity:1"
       d="m 1032.1866,758.51952 40.0046,-193.64328 82.7237,10.3512 17.5412,123.25702 z"
       id="path1918"
       inkscape:label="gl" /><rect
       style="fill:#ffffff;fill-opacity:1;stroke:#000000;stroke-width:2.92375;stroke-dasharray:none;stroke-opacity:1"
       id="rect1891"
       width="219.67699"
       height="200.85294"
       x="341.05249"
       y="-1049.0713"
       inkscape:label="zh"
       transform="rotate(90)" /><path
       style="fill:#ffffff;fill-opacity:1;stroke:#000000;stroke-width:2.92375;stroke-dasharray:none;stroke-opacity:1"
       d="m 357.90209,591.17254 218.479,-96.28329 -56.10605,-55.28432 -119.98144,-38.63909 -36.57633,68.58488 -23.71885,103.30579 z"
       id="path1883"
       inkscape:label="ju" /><path
       style="fill:#ffffff;fill-opacity:1;stroke:#000000;stroke-width:2.92375;stroke-dasharray:none;stroke-opacity:1"
       d="M 1088.5649,863.55279 1064.1363,1244.4656 886.17341,895.59116 Z"
       id="path1701"
       inkscape:label="ti" /><path
       style="fill:#ffffff;fill-opacity:1;stroke:#000000;stroke-width:2.90627;stroke-dasharray:none;stroke-opacity:1"
       d="M 103.21588,983.26727 318.09097,953.54223 464.69815,940.71368 471.83306,891.95559 325.77792,840.34099 204.50606,735.913 Z"
       id="path1703"
       inkscape:label="vd" /><rect
       style="fill:#ffffff;fill-opacity:1;stroke:#000000;stroke-width:3.78862;stroke-dasharray:none;stroke-opacity:1"
       id="rect1894"
       width="204.67427"
       height="191.54329"
       x="342.74933"
       y="-857.22247"
       inkscape:label="ag"
       transform="rotate(90)" /><rect
       style="fill:#ffffff;fill-opacity:1;stroke:#000000;stroke-width:2.48431;stroke-dasharray:none;stroke-opacity:1"
       id="rect1757"
       width="101.16857"
       height="107.55009"
       x="965.65106"
       y="-167.15504"
       inkscape:label="ge"
       transform="rotate(90)" /><path
       style="fill:#ffffff;fill-opacity:1;stroke:#000000;stroke-width:2.92375;stroke-dasharray:none;stroke-opacity:1"
       d="m 1152.9581,691.17344 91.6792,-51.8316 46.9517,-209.9618 -219.1722,-12.33438 -78.28386,126.70904 112.37686,34.30983 z"
       id="path1762"
       inkscape:label="sg" /><path
       style="fill:#ffffff;fill-opacity:1;stroke:#000000;stroke-width:2.92375;stroke-dasharray:none;stroke-opacity:1"
       d="m 959.47822,322.73582 85.34188,136.04157 218.6323,-29.36595 -129.5215,-107.04398 z"
       id="path1764"
       inkscape:label="tg" /><rect
       style="fill:#ffffff;fill-opacity:1;stroke:#000000;stroke-width:2.48431;stroke-dasharray:none;stroke-opacity:1"
       id="rect1757-7"
       width="101.16857"
       height="107.55009"
       x="254.36978"
       y="-979.51587"
       inkscape:label="sh"
       transform="rotate(90)" /><rect
       style="fill:#ffffff;fill-opacity:1;stroke:#000000;stroke-width:2.48431;stroke-dasharray:none;stroke-opacity:1"
       id="rect1757-7-5"
       width="101.16857"
       height="107.55009"
       x="517.68408"
       y="-954.5296"
       inkscape:label="zg"
       transform="rotate(90)" /><rect
       style="fill:#ffffff;fill-opacity:1;stroke:#000000;stroke-width:2.48431;stroke-dasharray:none;stroke-opacity:1"
       id="rect1757-7-5-3"
       width="101.16857"
       height="107.55009"
       x="635.80817"
       y="-932.92432"
       inkscape:label="nw"
       transform="rotate(90)" /><rect
       style="fill:#ffffff;fill-opacity:1;stroke:#000000;stroke-width:2.48431;stroke-dasharray:none;stroke-opacity:1"
       id="rect1757-7-5-5"
       width="101.16857"
       height="107.55009"
       x="718.34686"
       y="-877.68274"
       inkscape:label="ow"
       transform="rotate(90)" /><path
       style="fill:#ffffff;fill-opacity:1;stroke:#000000;stroke-width:2.92375;stroke-dasharray:none;stroke-opacity:1"
       d="m 461.57977,886.11112 52.32348,-166.47231 -64.47563,-63.82273 -63.28649,10.08391 -112.16542,128.38797 45.63847,59.98337 z"
       id="path1878"
       inkscape:label="fr" /><path
       style="fill:#ffffff;fill-opacity:1;stroke:#000000;stroke-width:2.92375;stroke-dasharray:none;stroke-opacity:1"
       d="m 537.02969,481.67885 -23.89957,77.98487 27.65114,44.94937 136.04323,-80.95194 57.17001,-42.15105 z"
       id="path1888"
       inkscape:label="so" /><rect
       style="fill:#ffffff;fill-opacity:1;stroke:#000000;stroke-width:2.92375;stroke-dasharray:none;stroke-opacity:1"
       id="rect1886"
       width="106.02511"
       height="265.30743"
       x="375.30914"
       y="-762.52417"
       inkscape:label="bl"
       transform="rotate(90)" /><rect
       style="fill:#ffffff;fill-opacity:1;stroke:#000000;stroke-width:2.48431;stroke-dasharray:none;stroke-opacity:1"
       id="rect1757-6"
       width="101.16857"
       height="107.55009"
       x="297.87436"
       y="-648.12238"
       inkscape:label="bs"
       transform="rotate(90)" /><rect
       style="fill:#ffffff;fill-opacity:1;stroke:#000000;stroke-width:2.48431;stroke-dasharray:none;stroke-opacity:1"
       id="rect1757-7-5-6"
       width="101.16857"
       height="107.55009"
       x="457.13004"
       y="-1192.415"
       inkscape:label="ar"
       transform="rotate(90)" /><rect
       style="fill:#ffffff;fill-opacity:1;stroke:#000000;stroke-width:2.48431;stroke-dasharray:none;stroke-opacity:1"
       id="rect1757-7-5-2"
       width="101.16857"
       height="107.55009"
       x="510.13153"
       y="-1296.9127"
       inkscape:label="ai"
       transform="rotate(90)" /><g
       id="Layer_4"
       transform="matrix(1.5479172,0,0,1.5463887,-74.130207,-1043.9402)">
	<path
   class="st1"
   d="M 56.9,933.1 H 273 c 1.7,0 3,1.3 3,3 v 26 c 0,1.7 -1.3,3 -3,3 H 56.9 c -1.7,0 -3,-1.3 -3,-3 v -26 c 0,-1.6 1.4,-3 3,-3 z"
   id="path2146"
   style="fill:#ffffff" />
	<path
   class="st2"
   d="M 56.9,870 H 273 c 1.7,0 3,1.3 3,3 v 26 c 0,1.7 -1.3,3 -3,3 H 56.9 c -1.7,0 -3,-1.3 -3,-3 v -26 c 0,-1.6 1.4,-3 3,-3 z"
   id="path2148"
   style="fill:#88aeff" />
	<path
   class="st3"
   d="M 56.9,742 H 273 c 1.7,0 3,1.3 3,3 v 26 c 0,1.7 -1.3,3 -3,3 H 56.9 c -1.7,0 -3,-1.3 -3,-3 v -26 c 0,-1.6 1.4,-3 3,-3 z"
   id="path2150"
   style="fill:#ff7e7e" />
	<path
   class="st4"
   d="M 56.9,838 H 273 c 1.7,0 3,1.3 3,3 v 26 c 0,1.7 -1.3,3 -3,3 H 56.9 c -1.7,0 -3,-1.3 -3,-3 v -26 c 0,-1.6 1.4,-3 3,-3 z"
   id="path2152"
   style="fill:#a8ffbe" />
	<path
   class="st5"
   d="M 56.9,774 H 273 c 1.7,0 3,1.3 3,3 v 26 c 0,1.7 -1.3,3 -3,3 H 56.9 c -1.7,0 -3,-1.3 -3,-3 v -26 c 0,-1.6 1.4,-3 3,-3 z"
   id="path2154"
   style="fill:#ffb57e" />
	<path
   class="st6"
   d="M 56.9,902 H 273 c 1.7,0 3,1.3 3,3 v 26 c 0,1.7 -1.3,3 -3,3 H 56.9 c -1.7,0 -3,-1.3 -3,-3 v -26 c 0,-1.6 1.4,-3 3,-3 z"
   id="path2156"
   style="fill:#d6beff" />
	<path
   class="st7"
   d="M 56.9,806 H 273 c 1.7,0 3,1.3 3,3 v 26 c 0,1.7 -1.3,3 -3,3 H 56.9 c -1.7,0 -3,-1.3 -3,-3 v -26 c 0,-1.6 1.4,-3 3,-3 z"
   id="path2158"
   style="fill:#ffe57e" />
	<path
   class="st8"
   d="M 56.9,742 H 273 c 1.7,0 3,1.5 3,3.5 V 962 c 0,2 -1.3,3.5 -3,3.5 H 56.9 c -1.7,0 -3,-1.5 -3,-3.5 V 745.5 c 0,-1.9 1.4,-3.5 3,-3.5 z"
   id="path2160"
   style="fill:none;stroke:#000000;stroke-width:2;stroke-miterlimit:10" />
	<path
   class="st9"
   d="m 64.4,749.6 h 90.2 c 1.7,0 3,1.3 3,3 v 10.6 c 0,1.7 -1.3,3 -3,3 H 64.4 c -1.7,0 -3,-1.3 -3,-3 v -10.6 c 0,-1.6 1.4,-3 3,-3 z"
   id="path2162"
   style="fill:none" />
	<text
   transform="translate(61.4438,764.5048)"
   class="st10 st11"
   id="text2164"
   style="font-size:18px;font-family:ArialRoundedMTBold">Lived here</text>
	<path
   class="st9"
   d="m 65,781.8 h 117.9 c 1.7,0 3,1.3 3,3 v 10.6 c 0,1.7 -1.3,3 -3,3 H 65 c -1.7,0 -3,-1.3 -3,-3 v -10.6 c 0,-1.6 1.4,-3 3,-3 z"
   id="path2166"
   style="fill:none" />
	<text
   transform="translate(61.9937,796.6229)"
   class="st10 st11"
   id="text2168"
   style="font-size:18px;font-family:ArialRoundedMTBold">Stayed (1 week +)</text>
	<path
   class="st9"
   d="m 65.4,813.8 h 117.9 c 1.7,0 3,1.3 3,3 v 10.6 c 0,1.7 -1.3,3 -3,3 H 65.4 c -1.7,0 -3,-1.3 -3,-3 v -10.6 c 0,-1.6 1.4,-3 3,-3 z"
   id="path2170"
   style="fill:none" />
	<text
   transform="translate(62.4503,828.6221)"
   class="st10 st11"
   id="text2172"
   style="font-size:18px;font-family:ArialRoundedMTBold">Stayed (1 night +)</text>
	<path
   class="st9"
   d="m 64.4,845.8 h 117.9 c 1.7,0 3,1.3 3,3 v 10.6 c 0,1.7 -1.3,3 -3,3 H 64.4 c -1.7,0 -3,-1.3 -3,-3 v -10.6 c 0,-1.6 1.4,-3 3,-3 z"
   id="path2174"
   style="fill:none" />
	<text
   transform="translate(61.4503,860.6222)"
   class="st10 st11"
   id="text2176"
   style="font-size:18px;font-family:ArialRoundedMTBold">Visited here</text>
	<path
   class="st9"
   d="m 65.4,877.8 h 117.9 c 1.7,0 3,1.3 3,3 v 10.6 c 0,1.7 -1.3,3 -3,3 H 65.4 c -1.7,0 -3,-1.3 -3,-3 v -10.6 c 0,-1.6 1.4,-3 3,-3 z"
   id="path2178"
   style="fill:none" />
	<text
   transform="translate(62.4503,892.6222)"
   class="st10 st11"
   id="text2180"
   style="font-size:18px;font-family:ArialRoundedMTBold">Passed here</text>
	<path
   class="st9"
   d="m 65.4,909.8 h 165.5 c 1.7,0 3,1.3 3,3 v 10.6 c 0,1.7 -1.3,3 -3,3 H 65.4 c -1.7,0 -3,-1.3 -3,-3 v -10.6 c 0,-1.6 1.4,-3 3,-3 z"
   id="path2182"
   style="fill:none" />
	<text
   transform="translate(62.4503,924.6222)"
   class="st10 st11"
   id="text2184"
   style="font-size:18px;font-family:ArialRoundedMTBold">Want to be here</text>
	<path
   class="st9"
   d="m 65.8,940.1 h 165.5 c 1.7,0 3,1.3 3,3 v 10.6 c 0,1.7 -1.3,3 -3,3 H 65.8 c -1.7,0 -3,-1.3 -3,-3 v -10.6 c 0,-1.6 1.4,-3 3,-3 z"
   id="path2186"
   style="fill:none" />
	<text
   transform="translate(62.8503,954.9222)"
   class="st10 st11"
   id="text2188"
   style="font-size:18px;font-family:ArialRoundedMTBold">Never been here</text>
	<path
   class="st9"
   d="m 210.7,939.5 h 53.4 c 1.7,0 3,1.3 3,3 v 10.6 c 0,1.7 -1.3,3 -3,3 h -53.4 c -1.7,0 -3,-1.3 -3,-3 v -10.6 c 0,-1.6 1.4,-3 3,-3 z"
   id="path2190"
   style="fill:none" />
	<text
   transform="translate(234.354,954.3421)"
   class="st10 st11"
   id="text2192"
   style="font-size:18px;font-family:ArialRoundedMTBold">0 pt</text>
	<path
   class="st9"
   d="m 209.3,750.2 h 53.4 c 1.7,0 3,1.3 3,3 v 10.6 c 0,1.7 -1.3,3 -3,3 h -53.4 c -1.7,0 -3,-1.3 -3,-3 v -10.6 c 0,-1.6 1.4,-3 3,-3 z"
   id="path2194"
   style="fill:none" />
	<text
   transform="translate(232.9265,765.0421)"
   class="st10 st11"
   id="text2196"
   style="font-size:18px;font-family:ArialRoundedMTBold">5 pt</text>
	<path
   class="st9"
   d="m 209.3,781.2 h 53.4 c 1.7,0 3,1.3 3,3 v 10.6 c 0,1.7 -1.3,3 -3,3 h -53.4 c -1.7,0 -3,-1.3 -3,-3 v -10.6 c 0,-1.6 1.4,-3 3,-3 z"
   id="path2198"
   style="fill:none" />
	<text
   transform="translate(232.954,796.0421)"
   class="st10 st11"
   id="text2200"
   style="font-size:18px;font-family:ArialRoundedMTBold">4 pt</text>
	<path
   class="st9"
   d="m 210.3,813.2 h 53.4 c 1.7,0 3,1.3 3,3 v 10.6 c 0,1.7 -1.3,3 -3,3 h -53.4 c -1.7,0 -3,-1.3 -3,-3 v -10.6 c 0,-1.6 1.4,-3 3,-3 z"
   id="path2202"
   style="fill:none" />
	<text
   transform="translate(233.954,828.0421)"
   class="st10 st11"
   id="text2204"
   style="font-size:18px;font-family:ArialRoundedMTBold">3 pt</text>
	<path
   class="st9"
   d="m 210.3,845.2 h 53.4 c 1.7,0 3,1.3 3,3 v 10.6 c 0,1.7 -1.3,3 -3,3 h -53.4 c -1.7,0 -3,-1.3 -3,-3 v -10.6 c 0,-1.6 1.4,-3 3,-3 z"
   id="path2206"
   style="fill:none" />
	<text
   transform="translate(233.954,860.0421)"
   class="st10 st11"
   id="text2208"
   style="font-size:18px;font-family:ArialRoundedMTBold">2 pt</text>
	<path
   class="st9"
   d="m 210.3,877.2 h 53.4 c 1.7,0 3,1.3 3,3 v 10.6 c 0,1.7 -1.3,3 -3,3 h -53.4 c -1.7,0 -3,-1.3 -3,-3 v -10.6 c 0,-1.6 1.4,-3 3,-3 z"
   id="path2210"
   style="fill:none" />
	<text
   transform="translate(233.954,892.0421)"
   class="st10 st11"
   id="text2212"
   style="font-size:18px;font-family:ArialRoundedMTBold">1 pt</text>
	<path
   class="st9"
   d="m 210.3,909.2 h 53.4 c 1.7,0 3,1.3 3,3 v 10.6 c 0,1.7 -1.3,3 -3,3 h -53.4 c -1.7,0 -3,-1.3 -3,-3 v -10.6 c 0,-1.6 1.4,-3 3,-3 z"
   id="path2214"
   style="fill:none" />
	<text
   transform="translate(233.954,924.0421)"
   class="st10 st11"
   id="text2216"
   style="font-size:18px;font-family:ArialRoundedMTBold">0 pt</text>
</g></g></svg>
