<?xml version="1.0" encoding="UTF-8" standalone="no"?>
<!-- Created with Inkscape (http://www.inkscape.org/) -->

<svg
   width="1618mm"
   height="1249mm"
   viewBox="0 0 1618 1249"
   version="1.1"
   id="svg3590"
   inkscape:version="1.2.1 (9c6d41e410, 2022-07-14)"
   sodipodi:docname="de.svg"
   xmlns:inkscape="http://www.inkscape.org/namespaces/inkscape"
   xmlns:sodipodi="http://sodipodi.sourceforge.net/DTD/sodipodi-0.dtd"
   xmlns="http://www.w3.org/2000/svg"
   xmlns:svg="http://www.w3.org/2000/svg">
  <sodipodi:namedview
     id="namedview3592"
     pagecolor="#ffffff"
     bordercolor="#000000"
     borderopacity="0.25"
     inkscape:showpageshadow="2"
     inkscape:pageopacity="0.0"
     inkscape:pagecheckerboard="0"
     inkscape:deskcolor="#d1d1d1"
     inkscape:document-units="mm"
     showgrid="false"
     inkscape:zoom="0.16794594"
     inkscape:cx="3254.0233"
     inkscape:cy="1961.9409"
     inkscape:window-width="1920"
     inkscape:window-height="1015"
     inkscape:window-x="0"
     inkscape:window-y="0"
     inkscape:window-maximized="1"
     inkscape:current-layer="layer1" />
  <defs
     id="defs3587" />
  <g
     inkscape:label="Layer 1"
     inkscape:groupmode="layer"
     id="layer1">
    <path
       style="fill:#ffffff;stroke:#000000;stroke-width:2.92301"
       d="m 674.09517,176.55726 -24.78516,-64.4973 20.99839,-72.970924 95.75072,1.432086 31.80519,53.712906 47.45204,-0.835541 -3.75015,89.303953 18.92882,37.77897 -9.86581,57.20549 -172.65927,-59.21504 z"
       id="path3686"
       inkscape:label="sh" />
    <path
       style="fill:#ffffff;stroke:#000000;stroke-width:2.92301"
       d="m 436.75276,686.40835 -34.42677,-120.76409 41.40581,-142.48064 120.11983,-24.37167 29.74872,12.26265 46.70173,-22.85418 40.07443,-5.96207 32.47117,64.82196 -0.52972,96.38652 -48.5761,74.28225 z"
       id="path3680"
       inkscape:label="nw" />
    <path
       style="fill:#ffffff;stroke:#000000;stroke-width:2.92301"
       d="m 496.77536,409.76909 -9.59313,-93.40873 106.4156,-127.19138 46.4207,24.61483 35.01117,-36.11269 57.73135,31.82085 111.4702,42.68149 127.2455,76.90031 -38.25978,146.82282 -41.66724,116.67807 -181.57778,16.34149 z"
       id="path3683"
       inkscape:label="ni" />
    <path
       style="fill:#ffffff;stroke:#000000;stroke-width:3.11612"
       d="m 621.09925,629.37534 64.61518,-102.9776 43.63347,8.45837 82.62703,57.93563 60.15065,129.93065 L 711.7999,868.75318 547.23597,779.97329 Z"
       id="path3677"
       inkscape:label="he" />
    <path
       style="fill:#ffffff;stroke:#000000;stroke-width:2.92301"
       d="m 449.00763,778.05631 7.96925,79.7602 84.3372,11.91922 24.77874,-26.49913 -29.36852,-79.53637 z"
       id="path3669"
       inkscape:label="sl" />
    <path
       style="fill:#ffffff;stroke:#000000;stroke-width:2.80661"
       d="M 830.99891,693.25525 789.443,579.09043 896.67015,566.6985 l 143.62955,17.6972 30.2784,54.35625 -45.2666,94.5387 z"
       id="path3674"
       inkscape:label="th" />
    <path
       style="fill:#ffffff;stroke:#000000;stroke-width:2.92301"
       d="m 1014.3282,608.45279 -140.27471,-41.97985 0.75936,-93.60051 -5.50085,-96.00266 73.69924,-45.97781 125.04776,82.26637 45.6954,88.86645 16.951,69.25437 z"
       id="path3663"
       inkscape:label="st" />
    <path
       style="fill:#ffffff;stroke:#000000;stroke-width:2.92301"
       d="m 672.19117,835.2868 -75.79775,-91.96355 28.77312,-127.59881 -17.47671,-19.58681 -178.92905,97.21239 23.58985,96.79236 81.00139,8.82465 9.89023,66.03087 86.16138,47.1779 z"
       id="path3666"
       inkscape:label="rp" />
    <path
       style="fill:#ffffff;stroke:#000000;stroke-width:2.92301"
       d="m 852.39078,1133.7353 -269.10971,9.7053 28.16349,-269.15983 88.25936,-55.10082 80.33502,-0.53904 127.29765,186.99479 z"
       id="path3650"
       inkscape:label="bw" />
    <path
       style="fill:#ffffff;stroke:#000000;stroke-width:2.92301"
       d="m 1196.1206,299.93267 -32.3991,-137.91592 -104.0396,-39.32803 -102.62489,24.78455 -117.32641,35.47139 -9.97169,95.20658 78.13942,52.08432 z"
       id="path3660"
       inkscape:label="mv" />
    <path
       style="fill:#ffffff;stroke:#000000;stroke-width:2.92301"
       d="m 1227.2057,537.39549 -29.4924,-237.26084 -59.7793,-47.15349 -57.7316,35.99972 -159.49332,-4.18868 -16.10801,43.05107 88.61811,37.53811 45.05392,114.58625 61.4198,21.48424 18.2462,55.72938 z"
       id="path3657"
       inkscape:label="bb" />
    <path
       style="fill:#ffffff;stroke:#000000;stroke-width:2.92301"
       d="m 1037.7745,710.36288 202.8091,-94.93755 -10.8704,-77.81248 -102.0453,13.12572 -86.5807,-14.24699 -32.0072,72.08914 48.2394,23.61874 -90.54424,74.96442 53.99784,20.56935 z"
       id="path3654"
       inkscape:label="sn" />
    <path
       style="fill:#ffffff;stroke:#000000;stroke-width:2.92301"
       d="m 852.79808,1134.637 56.24219,22.3451 198.16293,-45.1938 88.1228,-134.22062 -160.3956,-261.63664 -84.02741,-28.95947 -208.74439,8.59253 -28.74352,66.63626 -16.65025,59.93138 74.86533,9.1357 98.03413,180.56896 z"
       id="path3648"
       inkscape:label="by" />
    <rect
       style="fill:#ffffff;stroke:#000000;stroke-width:2.92301"
       id="rect3689"
       width="113.11444"
       height="107.95216"
       x="707.73578"
       y="164.82837"
       inkscape:label="hh" />
    <rect
       style="fill:#ffffff;stroke:#000000;stroke-width:2.92301"
       id="rect3689-7"
       width="113.11444"
       height="107.95216"
       x="1041.4417"
       y="312.89142"
       inkscape:label="be" />
    <rect
       style="fill:#ffffff;stroke:#000000;stroke-width:2.92301"
       id="rect3689-6"
       width="113.11444"
       height="107.95216"
       x="600.26331"
       y="288.68103"
       inkscape:label="hb" />
  </g>
</svg>
